<svg width="309" height="73" viewBox="0 0 309 73" fill="none" xmlns="http://www.w3.org/2000/svg">
<path fill-rule="evenodd" clip-rule="evenodd" d="M35.4999 60.4323C49.2697 60.4323 60.4323 49.2697 60.4323 35.4999C60.4323 21.7302 49.2697 10.5676 35.4999 10.5676C21.7302 10.5676 10.5676 21.7302 10.5676 35.4999C10.5676 49.2697 21.7302 60.4323 35.4999 60.4323ZM35.4999 67.9462C53.4195 67.9462 67.9462 53.4195 67.9462 35.4999C67.9462 17.5804 53.4195 3.05371 35.4999 3.05371C17.5804 3.05371 3.05371 17.5804 3.05371 35.4999C3.05371 53.4195 17.5804 67.9462 35.4999 67.9462Z" fill="#54575E"/>
<path fill-rule="evenodd" clip-rule="evenodd" d="M35.5 68.9714C53.9858 68.9714 68.9714 53.9858 68.9714 35.5C68.9714 17.0142 53.9858 2.02857 35.5 2.02857C17.0142 2.02857 2.02857 17.0142 2.02857 35.5C2.02857 53.9858 17.0142 68.9714 35.5 68.9714ZM35.5 71C55.1061 71 71 55.1061 71 35.5C71 15.8939 55.1061 0 35.5 0C15.8939 0 0 15.8939 0 35.5C0 55.1061 15.8939 71 35.5 71Z" fill="#54575E"/>
<path fill-rule="evenodd" clip-rule="evenodd" d="M45.5324 30.6023L50.3201 20.6794L40.3972 25.467L30.5425 30.1118L25.8977 39.9665L21.1101 49.8894L31.033 45.1018L40.8877 40.457L45.5324 30.6023ZM33.4333 37.2621C32.341 36.1699 32.341 34.3989 33.4333 33.3066C34.5255 32.2143 36.2965 32.2143 37.3888 33.3066C38.4811 34.3989 38.4811 36.1699 37.3888 37.2621C36.2965 38.3544 34.5255 38.3544 33.4333 37.2621Z" fill="#54575E"/>
<path d="M109.31 20.478H104.516C104.452 19.9858 104.321 19.5415 104.123 19.1452C103.925 18.7489 103.663 18.4102 103.337 18.1289C103.011 17.8477 102.624 17.6335 102.177 17.4865C101.736 17.3331 101.247 17.2564 100.71 17.2564C99.7575 17.2564 98.9361 17.4897 98.2457 17.9563C97.5618 18.4229 97.0344 19.0973 96.6637 19.9794C96.2994 20.8615 96.1172 21.929 96.1172 23.1818C96.1172 24.4858 96.3026 25.5788 96.6733 26.4609C97.0504 27.3366 97.5778 27.9982 98.2553 28.4457C98.9393 28.8867 99.7479 29.1072 100.681 29.1072C101.205 29.1072 101.681 29.0401 102.11 28.9059C102.544 28.7717 102.925 28.5767 103.251 28.321C103.583 28.0589 103.855 27.7425 104.066 27.3718C104.283 26.9947 104.433 26.5696 104.516 26.0966L109.31 26.1254C109.227 26.9947 108.975 27.8512 108.553 28.695C108.137 29.5387 107.565 30.3089 106.837 31.0057C106.108 31.696 105.219 32.2457 104.171 32.6548C103.129 33.0639 101.934 33.2685 100.585 33.2685C98.8082 33.2685 97.2166 32.8786 95.8104 32.0987C94.4105 31.3125 93.3047 30.1683 92.4929 28.6662C91.6811 27.1641 91.2752 25.3359 91.2752 23.1818C91.2752 21.0213 91.6875 19.19 92.5121 17.6879C93.3366 16.1857 94.4521 15.0447 95.8583 14.2649C97.2646 13.4851 98.8402 13.0952 100.585 13.0952C101.774 13.0952 102.874 13.2614 103.884 13.5938C104.893 13.9197 105.782 14.3991 106.549 15.032C107.316 15.6584 107.939 16.4286 108.419 17.3427C108.898 18.2567 109.195 19.3018 109.31 20.478ZM130.56 23.1818C130.56 25.3423 130.144 27.1737 129.313 28.6758C128.483 30.1779 127.358 31.3189 125.938 32.0987C124.526 32.8786 122.941 33.2685 121.183 33.2685C119.419 33.2685 117.83 32.8754 116.418 32.0891C115.005 31.3029 113.883 30.1619 113.052 28.6662C112.228 27.1641 111.815 25.3359 111.815 23.1818C111.815 21.0213 112.228 19.19 113.052 17.6879C113.883 16.1857 115.005 15.0447 116.418 14.2649C117.83 13.4851 119.419 13.0952 121.183 13.0952C122.941 13.0952 124.526 13.4851 125.938 14.2649C127.358 15.0447 128.483 16.1857 129.313 17.6879C130.144 19.19 130.56 21.0213 130.56 23.1818ZM125.708 23.1818C125.708 21.9034 125.526 20.8232 125.162 19.9411C124.804 19.0589 124.286 18.391 123.609 17.9371C122.937 17.4833 122.129 17.2564 121.183 17.2564C120.243 17.2564 119.435 17.4833 118.757 17.9371C118.079 18.391 117.559 19.0589 117.194 19.9411C116.836 20.8232 116.657 21.9034 116.657 23.1818C116.657 24.4602 116.836 25.5405 117.194 26.4226C117.559 27.3047 118.079 27.9727 118.757 28.4265C119.435 28.8803 120.243 29.1072 121.183 29.1072C122.129 29.1072 122.937 28.8803 123.609 28.4265C124.286 27.9727 124.804 27.3047 125.162 26.4226C125.526 25.5405 125.708 24.4602 125.708 23.1818ZM133.331 13.3636H139.208L144.194 25.5213H144.424L149.41 13.3636H155.288V33H150.666V20.9382H150.503L145.786 32.8754H142.833L138.115 20.8711H137.952V33H133.331V13.3636ZM158.248 33V13.3636H166.359C167.83 13.3636 169.098 13.6513 170.166 14.2266C171.24 14.7955 172.067 15.5913 172.649 16.614C173.231 17.6303 173.522 18.8129 173.522 20.1616C173.522 21.5167 173.224 22.7024 172.63 23.7188C172.042 24.7287 171.201 25.5117 170.108 26.0678C169.015 26.6239 167.718 26.902 166.216 26.902H161.211V23.1626H165.333C166.049 23.1626 166.647 23.038 167.126 22.7887C167.612 22.5394 167.98 22.1911 168.229 21.7436C168.478 21.2898 168.603 20.7624 168.603 20.1616C168.603 19.5543 168.478 19.0302 168.229 18.5891C167.98 18.1417 167.612 17.7965 167.126 17.5536C166.641 17.3107 166.043 17.1893 165.333 17.1893H162.994V33H158.248ZM177.736 33H172.635L179.26 13.3636H185.579L192.204 33H187.103L182.491 18.3111H182.338L177.736 33ZM177.055 25.272H187.717V28.8771H177.055V25.272ZM204.326 19.2507C204.262 18.5476 203.977 18.0011 203.472 17.6112C202.974 17.2148 202.261 17.0167 201.334 17.0167C200.721 17.0167 200.209 17.0966 199.8 17.2564C199.391 17.4162 199.084 17.6367 198.88 17.918C198.675 18.1928 198.57 18.5092 198.563 18.8672C198.551 19.1612 198.608 19.4201 198.736 19.6438C198.87 19.8675 199.062 20.0657 199.311 20.2383C199.567 20.4045 199.874 20.5515 200.232 20.6793C200.59 20.8072 200.992 20.919 201.44 21.0149L203.127 21.3984C204.099 21.6094 204.955 21.8906 205.697 22.2422C206.445 22.5938 207.071 23.0124 207.576 23.4982C208.087 23.984 208.474 24.5433 208.736 25.1761C208.998 25.8089 209.133 26.5185 209.139 27.3047C209.133 28.5447 208.819 29.609 208.199 30.4975C207.579 31.386 206.688 32.0668 205.524 32.5398C204.367 33.0128 202.971 33.2493 201.334 33.2493C199.691 33.2493 198.26 33.0032 197.039 32.511C195.818 32.0188 194.869 31.271 194.191 30.2674C193.514 29.2638 193.165 27.995 193.146 26.4609H197.691C197.729 27.0938 197.899 27.6211 198.199 28.043C198.499 28.4648 198.912 28.7844 199.436 29.0018C199.966 29.2191 200.58 29.3278 201.277 29.3278C201.916 29.3278 202.459 29.2415 202.907 29.0689C203.361 28.8963 203.709 28.6566 203.952 28.3498C204.195 28.043 204.319 27.6914 204.326 27.2951C204.319 26.9244 204.204 26.608 203.981 26.3459C203.757 26.0774 203.412 25.8473 202.945 25.6555C202.485 25.4574 201.897 25.2752 201.181 25.109L199.129 24.6296C197.429 24.2397 196.09 23.6101 195.112 22.7408C194.134 21.8651 193.648 20.6825 193.654 19.1932C193.648 17.9787 193.974 16.9144 194.632 16.0004C195.291 15.0863 196.201 14.3736 197.365 13.8622C198.528 13.3509 199.854 13.0952 201.344 13.0952C202.865 13.0952 204.185 13.354 205.304 13.8718C206.429 14.3832 207.301 15.1023 207.921 16.0291C208.541 16.956 208.858 18.0298 208.87 19.2507H204.326ZM222.15 19.2507C222.086 18.5476 221.802 18.0011 221.297 17.6112C220.798 17.2148 220.085 17.0167 219.158 17.0167C218.545 17.0167 218.033 17.0966 217.624 17.2564C217.215 17.4162 216.908 17.6367 216.704 17.918C216.499 18.1928 216.394 18.5092 216.388 18.8672C216.375 19.1612 216.432 19.4201 216.56 19.6438C216.694 19.8675 216.886 20.0657 217.135 20.2383C217.391 20.4045 217.698 20.5515 218.056 20.6793C218.414 20.8072 218.816 20.919 219.264 21.0149L220.951 21.3984C221.923 21.6094 222.78 21.8906 223.521 22.2422C224.269 22.5938 224.895 23.0124 225.4 23.4982C225.912 23.984 226.298 24.5433 226.56 25.1761C226.823 25.8089 226.957 26.5185 226.963 27.3047C226.957 28.5447 226.644 29.609 226.024 30.4975C225.403 31.386 224.512 32.0668 223.348 32.5398C222.191 33.0128 220.795 33.2493 219.158 33.2493C217.516 33.2493 216.084 33.0032 214.863 32.511C213.642 32.0188 212.693 31.271 212.015 30.2674C211.338 29.2638 210.989 27.995 210.97 26.4609H215.515C215.553 27.0938 215.723 27.6211 216.023 28.043C216.324 28.4648 216.736 28.7844 217.26 29.0018C217.791 29.2191 218.404 29.3278 219.101 29.3278C219.74 29.3278 220.283 29.2415 220.731 29.0689C221.185 28.8963 221.533 28.6566 221.776 28.3498C222.019 28.043 222.144 27.6914 222.15 27.2951C222.144 26.9244 222.028 26.608 221.805 26.3459C221.581 26.0774 221.236 25.8473 220.769 25.6555C220.309 25.4574 219.721 25.2752 219.005 25.109L216.953 24.6296C215.253 24.2397 213.914 23.6101 212.936 22.7408C211.958 21.8651 211.472 20.6825 211.478 19.1932C211.472 17.9787 211.798 16.9144 212.456 16.0004C213.115 15.0863 214.026 14.3736 215.189 13.8622C216.352 13.3509 217.679 13.0952 219.168 13.0952C220.689 13.0952 222.009 13.354 223.128 13.8718C224.253 14.3832 225.125 15.1023 225.745 16.0291C226.366 16.956 226.682 18.0298 226.695 19.2507H222.15Z" fill="#54575E"/>
<path d="M91.5852 60V46.9091H96.0085C97.0313 46.9091 97.8707 47.0838 98.527 47.4332C99.1832 47.7784 99.669 48.2536 99.9844 48.8587C100.3 49.4638 100.457 50.152 100.457 50.9233C100.457 51.6946 100.3 52.3786 99.9844 52.9751C99.669 53.5717 99.1854 54.0405 98.5334 54.3814C97.8814 54.718 97.0483 54.8864 96.0341 54.8864H92.4545V53.4545H95.983C96.6818 53.4545 97.2443 53.3523 97.6705 53.1477C98.1009 52.9432 98.4119 52.6534 98.6037 52.2784C98.7997 51.8991 98.8977 51.4474 98.8977 50.9233C98.8977 50.3991 98.7997 49.9411 98.6037 49.549C98.4077 49.157 98.0945 48.8544 97.6641 48.6413C97.2337 48.424 96.6648 48.3153 95.9574 48.3153H93.1705V60H91.5852ZM97.7472 54.1193L100.969 60H99.1278L95.9574 54.1193H97.7472ZM106.778 60.2045C105.891 60.2045 105.113 59.9936 104.444 59.5717C103.78 59.1499 103.26 58.5597 102.885 57.8011C102.514 57.0426 102.329 56.1562 102.329 55.142C102.329 54.1193 102.514 53.2266 102.885 52.4638C103.26 51.701 103.78 51.1087 104.444 50.6868C105.113 50.2649 105.891 50.054 106.778 50.054C107.664 50.054 108.439 50.2649 109.104 50.6868C109.773 51.1087 110.293 51.701 110.664 52.4638C111.039 53.2266 111.226 54.1193 111.226 55.142C111.226 56.1562 111.039 57.0426 110.664 57.8011C110.293 58.5597 109.773 59.1499 109.104 59.5717C108.439 59.9936 107.664 60.2045 106.778 60.2045ZM106.778 58.8494C107.451 58.8494 108.005 58.6768 108.439 58.3317C108.874 57.9865 109.196 57.5327 109.405 56.9702C109.613 56.4077 109.718 55.7983 109.718 55.142C109.718 54.4858 109.613 53.8743 109.405 53.3075C109.196 52.7408 108.874 52.2827 108.439 51.9332C108.005 51.5838 107.451 51.4091 106.778 51.4091C106.104 51.4091 105.55 51.5838 105.116 51.9332C104.681 52.2827 104.359 52.7408 104.15 53.3075C103.942 53.8743 103.837 54.4858 103.837 55.142C103.837 55.7983 103.942 56.4077 104.15 56.9702C104.359 57.5327 104.681 57.9865 105.116 58.3317C105.55 58.6768 106.104 58.8494 106.778 58.8494ZM116.418 60.2301C115.796 60.2301 115.232 60.1129 114.724 59.8786C114.217 59.6399 113.815 59.2969 113.516 58.8494C113.218 58.3977 113.069 57.8523 113.069 57.2131C113.069 56.6506 113.18 56.1946 113.401 55.8452C113.623 55.4915 113.919 55.2145 114.29 55.0142C114.661 54.8139 115.07 54.6648 115.517 54.5668C115.969 54.4645 116.423 54.3835 116.879 54.3239C117.475 54.2472 117.959 54.1896 118.33 54.1513C118.705 54.1087 118.977 54.0384 119.148 53.9403C119.322 53.8423 119.41 53.6719 119.41 53.429V53.3778C119.41 52.7472 119.237 52.2571 118.892 51.9077C118.551 51.5582 118.033 51.3835 117.339 51.3835C116.619 51.3835 116.054 51.5412 115.645 51.8565C115.236 52.1719 114.948 52.5085 114.782 52.8665L113.35 52.3551C113.606 51.7585 113.947 51.294 114.373 50.9616C114.803 50.625 115.272 50.3906 115.779 50.2585C116.29 50.1222 116.793 50.054 117.288 50.054C117.603 50.054 117.965 50.0923 118.374 50.169C118.788 50.2415 119.186 50.3928 119.57 50.6229C119.957 50.853 120.279 51.2003 120.535 51.6648C120.79 52.1293 120.918 52.7514 120.918 53.5312V60H119.41V58.6705H119.333C119.231 58.8835 119.06 59.1115 118.822 59.3544C118.583 59.5973 118.266 59.804 117.869 59.9744C117.473 60.1449 116.989 60.2301 116.418 60.2301ZM116.648 58.875C117.245 58.875 117.748 58.7578 118.157 58.5234C118.57 58.2891 118.881 57.9865 119.09 57.6158C119.303 57.245 119.41 56.8551 119.41 56.446V55.0653C119.346 55.142 119.205 55.2124 118.988 55.2763C118.775 55.3359 118.528 55.3892 118.246 55.4361C117.969 55.4787 117.699 55.517 117.435 55.5511C117.175 55.581 116.964 55.6065 116.802 55.6278C116.41 55.679 116.043 55.7621 115.702 55.8771C115.366 55.9879 115.093 56.1562 114.884 56.3821C114.68 56.6037 114.577 56.9062 114.577 57.2898C114.577 57.8139 114.771 58.2102 115.159 58.4787C115.551 58.7429 116.048 58.875 116.648 58.875ZM127.379 60.2045C126.561 60.2045 125.839 59.9979 125.212 59.5845C124.586 59.1669 124.096 58.5788 123.742 57.8203C123.388 57.0575 123.211 56.1562 123.211 55.1165C123.211 54.0852 123.388 53.1903 123.742 52.4318C124.096 51.6733 124.588 51.0874 125.219 50.674C125.849 50.2607 126.578 50.054 127.405 50.054C128.044 50.054 128.549 50.1605 128.92 50.3736C129.295 50.5824 129.58 50.821 129.776 51.0895C129.976 51.3537 130.132 51.571 130.243 51.7415H130.371V46.9091H131.879V60H130.422V58.4915H130.243C130.132 58.6705 129.974 58.8963 129.77 59.169C129.565 59.4375 129.273 59.6783 128.894 59.8913C128.515 60.1001 128.01 60.2045 127.379 60.2045ZM127.584 58.8494C128.189 58.8494 128.7 58.6918 129.118 58.3764C129.535 58.0568 129.853 57.6158 130.07 57.0533C130.287 56.4865 130.396 55.8324 130.396 55.0909C130.396 54.358 130.29 53.7166 130.077 53.1669C129.863 52.6129 129.548 52.1825 129.131 51.8757C128.713 51.5646 128.197 51.4091 127.584 51.4091C126.944 51.4091 126.412 51.5732 125.986 51.9013C125.564 52.2251 125.246 52.6662 125.033 53.2244C124.824 53.7784 124.72 54.4006 124.72 55.0909C124.72 55.7898 124.827 56.4247 125.04 56.9957C125.257 57.5625 125.577 58.0142 125.998 58.3509C126.425 58.6832 126.953 58.8494 127.584 58.8494ZM144.184 50.1818V51.4602H139.096V50.1818H144.184ZM140.579 47.8295H142.087V57.1875C142.087 57.6136 142.149 57.9332 142.273 58.1463C142.4 58.3551 142.562 58.4957 142.758 58.5682C142.959 58.6364 143.17 58.6705 143.391 58.6705C143.557 58.6705 143.694 58.6619 143.8 58.6449C143.907 58.6236 143.992 58.6065 144.056 58.5938L144.363 59.9489C144.26 59.9872 144.118 60.0256 143.934 60.0639C143.751 60.1065 143.519 60.1278 143.238 60.1278C142.812 60.1278 142.394 60.0362 141.985 59.853C141.58 59.6697 141.243 59.3906 140.975 59.0156C140.711 58.6406 140.579 58.1676 140.579 57.5966V47.8295ZM150.336 60.2045C149.45 60.2045 148.672 59.9936 148.003 59.5717C147.338 59.1499 146.818 58.5597 146.443 57.8011C146.073 57.0426 145.887 56.1562 145.887 55.142C145.887 54.1193 146.073 53.2266 146.443 52.4638C146.818 51.701 147.338 51.1087 148.003 50.6868C148.672 50.2649 149.45 50.054 150.336 50.054C151.222 50.054 151.998 50.2649 152.663 50.6868C153.332 51.1087 153.852 51.701 154.222 52.4638C154.597 53.2266 154.785 54.1193 154.785 55.142C154.785 56.1562 154.597 57.0426 154.222 57.8011C153.852 58.5597 153.332 59.1499 152.663 59.5717C151.998 59.9936 151.222 60.2045 150.336 60.2045ZM150.336 58.8494C151.009 58.8494 151.563 58.6768 151.998 58.3317C152.433 57.9865 152.754 57.5327 152.963 56.9702C153.172 56.4077 153.276 55.7983 153.276 55.142C153.276 54.4858 153.172 53.8743 152.963 53.3075C152.754 52.7408 152.433 52.2827 151.998 51.9332C151.563 51.5838 151.009 51.4091 150.336 51.4091C149.663 51.4091 149.109 51.5838 148.674 51.9332C148.24 52.2827 147.918 52.7408 147.709 53.3075C147.5 53.8743 147.396 54.4858 147.396 55.142C147.396 55.7983 147.5 56.4077 147.709 56.9702C147.918 57.5327 148.24 57.9865 148.674 58.3317C149.109 58.6768 149.663 58.8494 150.336 58.8494ZM160.96 60V50.1818H163.683V60H160.96ZM162.328 48.9162C161.923 48.9162 161.575 48.782 161.286 48.5135C161 48.2408 160.857 47.9148 160.857 47.5355C160.857 47.1605 161 46.8388 161.286 46.5703C161.575 46.2976 161.923 46.1612 162.328 46.1612C162.732 46.1612 163.078 46.2976 163.363 46.5703C163.653 46.8388 163.798 47.1605 163.798 47.5355C163.798 47.9148 163.653 48.2408 163.363 48.5135C163.078 48.782 162.732 48.9162 162.328 48.9162ZM168.587 54.3239V60H165.864V50.1818H168.459V51.9141H168.574C168.792 51.343 169.156 50.8913 169.667 50.5589C170.179 50.2223 170.799 50.054 171.527 50.054C172.209 50.054 172.804 50.2031 173.311 50.5014C173.818 50.7997 174.212 51.2259 174.493 51.7798C174.775 52.3295 174.915 52.9858 174.915 53.7486V60H172.192V54.2344C172.196 53.6335 172.043 53.1648 171.732 52.8281C171.421 52.4872 170.993 52.3168 170.447 52.3168C170.081 52.3168 169.757 52.3956 169.475 52.5533C169.199 52.7109 168.981 52.9411 168.824 53.2436C168.67 53.5419 168.591 53.902 168.587 54.3239ZM182.284 50.1818V52.2273H176.371V50.1818H182.284ZM177.713 47.8295H180.436V56.983C180.436 57.2344 180.475 57.4304 180.551 57.571C180.628 57.7074 180.735 57.8033 180.871 57.8587C181.012 57.9141 181.173 57.9418 181.357 57.9418C181.485 57.9418 181.612 57.9311 181.74 57.9098C181.868 57.8842 181.966 57.8651 182.034 57.8523L182.463 59.8786C182.326 59.9212 182.134 59.9702 181.887 60.0256C181.64 60.0852 181.34 60.1214 180.986 60.1342C180.33 60.1598 179.754 60.0724 179.26 59.8722C178.77 59.6719 178.389 59.3608 178.116 58.9389C177.843 58.517 177.709 57.9844 177.713 57.3409V47.8295ZM188.426 60.1918C187.416 60.1918 186.547 59.9872 185.818 59.5781C185.094 59.1648 184.536 58.581 184.144 57.8267C183.752 57.0682 183.556 56.1712 183.556 55.1357C183.556 54.1257 183.752 53.2393 184.144 52.4766C184.536 51.7138 185.088 51.1193 185.799 50.6932C186.515 50.267 187.355 50.054 188.318 50.054C188.965 50.054 189.568 50.1584 190.127 50.3672C190.689 50.5717 191.179 50.8807 191.597 51.294C192.019 51.7074 192.347 52.2273 192.581 52.8537C192.816 53.4759 192.933 54.2045 192.933 55.0398V55.7876H184.642V54.1001H190.369C190.369 53.7081 190.284 53.3608 190.114 53.0582C189.943 52.7557 189.707 52.5192 189.404 52.3487C189.106 52.174 188.759 52.0866 188.362 52.0866C187.949 52.0866 187.583 52.1825 187.263 52.3743C186.948 52.5618 186.7 52.8153 186.521 53.1349C186.343 53.4503 186.251 53.8018 186.247 54.1896V55.794C186.247 56.2798 186.336 56.6996 186.515 57.0533C186.698 57.407 186.956 57.6797 187.289 57.8714C187.621 58.0632 188.015 58.1591 188.471 58.1591C188.774 58.1591 189.051 58.1165 189.302 58.0312C189.553 57.946 189.769 57.8182 189.948 57.6477C190.127 57.4773 190.263 57.2685 190.357 57.0213L192.875 57.1875C192.747 57.7926 192.485 58.321 192.089 58.7727C191.697 59.2202 191.19 59.5696 190.568 59.821C189.95 60.0682 189.236 60.1918 188.426 60.1918ZM199.133 63.8864C198.251 63.8864 197.494 63.7649 196.864 63.522C196.237 63.2834 195.739 62.9574 195.368 62.544C194.997 62.1307 194.757 61.6662 194.646 61.1506L197.164 60.8118C197.241 61.0078 197.362 61.1911 197.529 61.3615C197.695 61.532 197.914 61.6683 198.187 61.7706C198.464 61.8771 198.801 61.9304 199.197 61.9304C199.789 61.9304 200.277 61.7855 200.661 61.4957C201.048 61.2102 201.242 60.7308 201.242 60.0575V58.2614H201.127C201.008 58.5341 200.829 58.7919 200.59 59.0348C200.352 59.2777 200.045 59.4759 199.67 59.6293C199.295 59.7827 198.847 59.8594 198.328 59.8594C197.59 59.8594 196.919 59.6889 196.314 59.348C195.713 59.0028 195.234 58.4766 194.876 57.7692C194.522 57.0575 194.345 56.1584 194.345 55.0717C194.345 53.9595 194.526 53.0305 194.889 52.2848C195.251 51.5391 195.732 50.9808 196.333 50.6101C196.938 50.2393 197.601 50.054 198.321 50.054C198.871 50.054 199.331 50.1477 199.702 50.3352C200.073 50.5185 200.371 50.7486 200.597 51.0256C200.827 51.2983 201.004 51.5668 201.127 51.831H201.23V50.1818H203.933V60.0959C203.933 60.9311 203.729 61.63 203.32 62.1925C202.911 62.755 202.344 63.1768 201.619 63.4581C200.899 63.7436 200.07 63.8864 199.133 63.8864ZM199.191 57.8139C199.629 57.8139 200 57.7053 200.303 57.4879C200.61 57.2663 200.844 56.951 201.006 56.5419C201.172 56.1286 201.255 55.6342 201.255 55.0589C201.255 54.4837 201.174 53.9851 201.012 53.5632C200.85 53.1371 200.616 52.8068 200.309 52.5724C200.002 52.3381 199.629 52.2209 199.191 52.2209C198.743 52.2209 198.366 52.3423 198.059 52.5852C197.752 52.8239 197.52 53.1562 197.362 53.5824C197.205 54.0085 197.126 54.5007 197.126 55.0589C197.126 55.6257 197.205 56.1158 197.362 56.5291C197.524 56.9382 197.757 57.2557 198.059 57.4815C198.366 57.7031 198.743 57.8139 199.191 57.8139ZM206.1 60V50.1818H208.74V51.8949H208.843C209.021 51.2855 209.322 50.8253 209.744 50.5142C210.166 50.1989 210.651 50.0412 211.201 50.0412C211.338 50.0412 211.485 50.0497 211.642 50.0668C211.8 50.0838 211.938 50.1072 212.058 50.1371V52.5533C211.93 52.5149 211.753 52.4808 211.527 52.451C211.301 52.4212 211.095 52.4062 210.907 52.4062C210.507 52.4062 210.149 52.4936 209.833 52.6683C209.522 52.8388 209.275 53.0774 209.092 53.3842C208.913 53.6911 208.823 54.0447 208.823 54.4453V60H206.1ZM215.984 60.1854C215.358 60.1854 214.799 60.0767 214.309 59.8594C213.819 59.6378 213.431 59.3118 213.146 58.8814C212.865 58.4467 212.724 57.9055 212.724 57.2578C212.724 56.7124 212.824 56.2543 213.025 55.8835C213.225 55.5128 213.498 55.2145 213.843 54.9886C214.188 54.7628 214.58 54.5923 215.019 54.4773C215.462 54.3622 215.926 54.2812 216.412 54.2344C216.983 54.1747 217.444 54.1193 217.793 54.0682C218.142 54.0128 218.396 53.9318 218.554 53.8253C218.711 53.7187 218.79 53.5611 218.79 53.3523V53.3139C218.79 52.9091 218.662 52.5959 218.407 52.3743C218.155 52.1527 217.797 52.0419 217.333 52.0419C216.843 52.0419 216.453 52.1506 216.163 52.3679C215.873 52.581 215.681 52.8494 215.588 53.1733L213.069 52.9688C213.197 52.3722 213.449 51.8565 213.824 51.4219C214.199 50.983 214.682 50.6463 215.275 50.4119C215.871 50.1733 216.561 50.054 217.346 50.054C217.891 50.054 218.413 50.1179 218.912 50.2457C219.414 50.3736 219.86 50.5717 220.248 50.8402C220.64 51.1087 220.949 51.4538 221.174 51.8757C221.4 52.2933 221.513 52.794 221.513 53.3778V60H218.931V58.6385H218.854C218.696 58.9453 218.485 59.2159 218.221 59.4503C217.957 59.6804 217.64 59.8615 217.269 59.9936C216.898 60.1214 216.47 60.1854 215.984 60.1854ZM216.764 58.3061C217.164 58.3061 217.518 58.2273 217.825 58.0696C218.132 57.9077 218.373 57.6903 218.547 57.4176C218.722 57.1449 218.809 56.8359 218.809 56.4908V55.4489C218.724 55.5043 218.607 55.5554 218.458 55.6023C218.313 55.6449 218.149 55.6854 217.966 55.7237C217.782 55.7578 217.599 55.7898 217.416 55.8196C217.233 55.8452 217.066 55.8686 216.917 55.8899C216.598 55.9368 216.319 56.0114 216.08 56.1136C215.841 56.2159 215.656 56.3544 215.524 56.5291C215.392 56.6996 215.326 56.9126 215.326 57.1683C215.326 57.5391 215.46 57.8224 215.728 58.0185C216.001 58.2102 216.346 58.3061 216.764 58.3061ZM228.848 50.1818V52.2273H222.935V50.1818H228.848ZM224.278 47.8295H227.001V56.983C227.001 57.2344 227.039 57.4304 227.116 57.571C227.192 57.7074 227.299 57.8033 227.435 57.8587C227.576 57.9141 227.738 57.9418 227.921 57.9418C228.049 57.9418 228.177 57.9311 228.305 57.9098C228.433 57.8842 228.531 57.8651 228.599 57.8523L229.027 59.8786C228.891 59.9212 228.699 59.9702 228.452 60.0256C228.205 60.0852 227.904 60.1214 227.55 60.1342C226.894 60.1598 226.319 60.0724 225.825 59.8722C225.335 59.6719 224.953 59.3608 224.68 58.9389C224.408 58.517 224.273 57.9844 224.278 57.3409V47.8295ZM234.991 60.1918C233.981 60.1918 233.112 59.9872 232.383 59.5781C231.658 59.1648 231.1 58.581 230.708 57.8267C230.316 57.0682 230.12 56.1712 230.12 55.1357C230.12 54.1257 230.316 53.2393 230.708 52.4766C231.1 51.7138 231.652 51.1193 232.364 50.6932C233.08 50.267 233.919 50.054 234.882 50.054C235.53 50.054 236.133 50.1584 236.691 50.3672C237.254 50.5717 237.744 50.8807 238.161 51.294C238.583 51.7074 238.911 52.2273 239.146 52.8537C239.38 53.4759 239.497 54.2045 239.497 55.0398V55.7876H231.207V54.1001H236.934C236.934 53.7081 236.849 53.3608 236.678 53.0582C236.508 52.7557 236.271 52.5192 235.969 52.3487C235.67 52.174 235.323 52.0866 234.927 52.0866C234.513 52.0866 234.147 52.1825 233.827 52.3743C233.512 52.5618 233.265 52.8153 233.086 53.1349C232.907 53.4503 232.815 53.8018 232.811 54.1896V55.794C232.811 56.2798 232.901 56.6996 233.08 57.0533C233.263 57.407 233.521 57.6797 233.853 57.8714C234.185 58.0632 234.58 58.1591 235.036 58.1591C235.338 58.1591 235.615 58.1165 235.866 58.0312C236.118 57.946 236.333 57.8182 236.512 57.6477C236.691 57.4773 236.827 57.2685 236.921 57.0213L239.44 57.1875C239.312 57.7926 239.05 58.321 238.653 58.7727C238.261 59.2202 237.754 59.5696 237.132 59.821C236.514 60.0682 235.8 60.1918 234.991 60.1918ZM244.892 60.1598C244.146 60.1598 243.471 59.968 242.866 59.5845C242.265 59.1967 241.788 58.6278 241.434 57.8778C241.085 57.1236 240.91 56.1989 240.91 55.1037C240.91 53.9787 241.091 53.0433 241.453 52.2976C241.815 51.5476 242.297 50.9872 242.898 50.6165C243.503 50.2415 244.165 50.054 244.886 50.054C245.435 50.054 245.893 50.1477 246.26 50.3352C246.631 50.5185 246.929 50.7486 247.155 51.0256C247.385 51.2983 247.56 51.5668 247.679 51.831H247.762V46.9091H250.479V60H247.794V58.4276H247.679C247.551 58.7003 247.37 58.9709 247.136 59.2393C246.906 59.5036 246.605 59.723 246.234 59.8977C245.868 60.0724 245.42 60.1598 244.892 60.1598ZM245.755 57.9929C246.194 57.9929 246.565 57.8736 246.867 57.6349C247.174 57.392 247.408 57.0533 247.57 56.6186C247.737 56.1839 247.82 55.6747 247.82 55.0909C247.82 54.5071 247.739 54 247.577 53.5696C247.415 53.1392 247.18 52.8068 246.874 52.5724C246.567 52.3381 246.194 52.2209 245.755 52.2209C245.308 52.2209 244.93 52.3423 244.624 52.5852C244.317 52.8281 244.085 53.1648 243.927 53.5952C243.769 54.0256 243.69 54.5241 243.69 55.0909C243.69 55.6619 243.769 56.1669 243.927 56.6058C244.089 57.0405 244.321 57.3814 244.624 57.6286C244.93 57.8714 245.308 57.9929 245.755 57.9929ZM258.279 60V46.9091H262.702C263.729 46.9091 264.568 47.0945 265.22 47.4652C265.877 47.8317 266.362 48.3281 266.678 48.9545C266.993 49.581 267.151 50.2798 267.151 51.0511C267.151 51.8224 266.993 52.5234 266.678 53.1541C266.367 53.7848 265.885 54.2876 265.233 54.6626C264.581 55.0334 263.746 55.2188 262.727 55.2188H259.557V53.8125H262.676C263.379 53.8125 263.944 53.6911 264.37 53.4482C264.796 53.2053 265.105 52.8771 265.297 52.4638C265.493 52.0462 265.591 51.5753 265.591 51.0511C265.591 50.527 265.493 50.0582 265.297 49.6449C265.105 49.2315 264.794 48.9077 264.364 48.6733C263.933 48.4347 263.362 48.3153 262.651 48.3153H259.864V60H258.279ZM269.704 46.9091H271.596L276.045 57.7756H276.199L280.648 46.9091H282.54V60H281.057V50.054H280.929L276.838 60H275.406L271.315 50.054H271.187V60H269.704V46.9091ZM296.763 53.4545C296.763 54.8352 296.514 56.0284 296.016 57.0341C295.517 58.0398 294.833 58.8153 293.964 59.3608C293.094 59.9062 292.102 60.179 290.985 60.179C289.869 60.179 288.876 59.9062 288.006 59.3608C287.137 58.8153 286.453 58.0398 285.955 57.0341C285.456 56.0284 285.207 54.8352 285.207 53.4545C285.207 52.0739 285.456 50.8807 285.955 49.875C286.453 48.8693 287.137 48.0938 288.006 47.5483C288.876 47.0028 289.869 46.7301 290.985 46.7301C292.102 46.7301 293.094 47.0028 293.964 47.5483C294.833 48.0938 295.517 48.8693 296.016 49.875C296.514 50.8807 296.763 52.0739 296.763 53.4545ZM295.229 53.4545C295.229 52.321 295.04 51.3643 294.661 50.5845C294.286 49.8047 293.776 49.2145 293.133 48.8139C292.494 48.4134 291.778 48.2131 290.985 48.2131C290.192 48.2131 289.474 48.4134 288.831 48.8139C288.192 49.2145 287.683 49.8047 287.303 50.5845C286.928 51.3643 286.741 52.321 286.741 53.4545C286.741 54.5881 286.928 55.5447 287.303 56.3246C287.683 57.1044 288.192 57.6946 288.831 58.0952C289.474 58.4957 290.192 58.696 290.985 58.696C291.778 58.696 292.494 58.4957 293.133 58.0952C293.776 57.6946 294.286 57.1044 294.661 56.3246C295.04 55.5447 295.229 54.5881 295.229 53.4545Z" fill="#54575E"/>
</svg>
